<?xml version="1.0" encoding="UTF-8" standalone="no"?>
<!-- Created with Inkscape (http://www.inkscape.org/) -->

<svg
   xmlns:dc="http://purl.org/dc/elements/1.1/"
   xmlns:cc="http://creativecommons.org/ns#"
   xmlns:rdf="http://www.w3.org/1999/02/22-rdf-syntax-ns#"
   xmlns:svg="http://www.w3.org/2000/svg"
   xmlns="http://www.w3.org/2000/svg"
   xmlns:sodipodi="http://sodipodi.sourceforge.net/DTD/sodipodi-0.dtd"
   xmlns:inkscape="http://www.inkscape.org/namespaces/inkscape"
   width="625.79944"
   height="625.79999"
   id="svg3200"
   version="1.1"
   inkscape:version="0.48.0 r9654"
   inkscape:export-filename="C:\Users\hironobu\Desktop\g4668.png"
   inkscape:export-xdpi="28.763208"
   inkscape:export-ydpi="28.763208"
   sodipodi:docname="Hex.svg">
  <defs
     id="defs3202" />
  <sodipodi:namedview
     id="base"
     pagecolor="#ffffff"
     bordercolor="#666666"
     borderopacity="1.0"
     inkscape:pageopacity="0.0"
     inkscape:pageshadow="2"
     inkscape:zoom="0.45041527"
     inkscape:cx="198.77081"
     inkscape:cy="248.50935"
     inkscape:document-units="px"
     inkscape:current-layer="layer1"
     showgrid="false"
     fit-margin-top="0"
     fit-margin-left="0"
     fit-margin-right="0"
     fit-margin-bottom="0"
     inkscape:window-width="1024"
     inkscape:window-height="706"
     inkscape:window-x="-8"
     inkscape:window-y="-8"
     inkscape:window-maximized="1" />
  <metadata
     id="metadata3205">
    <rdf:RDF>
      <cc:Work
         rdf:about="">
        <dc:format>image/svg+xml</dc:format>
        <dc:type
           rdf:resource="http://purl.org/dc/dcmitype/StillImage" />
        <dc:title></dc:title>
      </cc:Work>
    </rdf:RDF>
  </metadata>
  <g
     inkscape:label="レイヤー 1"
     inkscape:groupmode="layer"
     id="layer1"
     transform="translate(365.92606,7.6592539)">
    <g
       id="g4668"
       transform="matrix(6.6028955,0,0,6.6028955,1115.067,-3315.4895)"
       inkscape:export-xdpi="18.668669"
       inkscape:export-ydpi="18.668669">
      <g
         transform="matrix(1.25,0,0,-1.25,-193.19995,533.37045)"
         id="g4546">
        <path
           inkscape:connector-curvature="0"
           id="path4548"
           style="fill:#000000;fill-opacity:1;fill-rule:nonzero;stroke:none"
           d="m 0,0 -6,0 c -1.108,0 -2.01,-0.901 -2.01,-2.01 l 0,-20 c 0,-1.108 0.902,-2.01 2.01,-2.01 l 6,0 c 1.108,0 2.01,0.902 2.01,2.01 l 0,20 C 2.01,-0.901 1.108,0 0,0" />
      </g>
      <g
         transform="matrix(1.25,0,0,-1.25,-171.66982,526.3222)"
         id="g4550">
        <path
           inkscape:connector-curvature="0"
           id="path4552"
           style="fill:#000000;fill-opacity:1;fill-rule:nonzero;stroke:none"
           d="m 0,0 c -0.204,0 -0.646,-0.061 -1.314,-0.468 l -11.91,-7.249 0,-19.863 11.91,-7.249 c 0.668,-0.407 1.11,-0.468 1.314,-0.468 0.709,0 0.786,1.153 0.786,1.649 l 0,32 C 0.786,-1.153 0.709,0 0,0" />
      </g>
      <g
         transform="matrix(1.25,0,0,-1.25,-163.19995,538.3827)"
         id="g4554">
        <path
           inkscape:connector-curvature="0"
           id="path4556"
           style="fill:none;stroke:#000000;stroke-width:3;stroke-linecap:round;stroke-linejoin:round;stroke-miterlimit:4;stroke-opacity:1;stroke-dasharray:none"
           d="m 0,0 c 0,0 4,-2 4,-8 0,-6 -4,-8 -4,-8" />
      </g>
      <g
         transform="matrix(1.25,0,0,-1.25,-156.94995,532.1327)"
         id="g4558">
        <path
           inkscape:connector-curvature="0"
           id="path4560"
           style="fill:none;stroke:#000000;stroke-width:3;stroke-linecap:round;stroke-linejoin:round;stroke-miterlimit:4;stroke-opacity:1;stroke-dasharray:none"
           d="M 0,0 C 0,0 6,-3.25 6,-13 6,-22.75 0,-26 0,-26" />
      </g>
      <g
         transform="matrix(1.25,0,0,-1.25,-168.19995,543.5597)"
         id="g4562">
        <path
           inkscape:connector-curvature="0"
           id="path4564"
           style="fill:#000000;fill-opacity:1;fill-rule:nonzero;stroke:none"
           d="M 0,0 0,-7.717 C 1.722,-7.271 3,-5.72 3,-3.858 3,-1.997 1.722,-0.446 0,0" />
      </g>
    </g>
    <path
       sodipodi:type="star"
       style="fill:none;stroke:#000000;stroke-width:46.32499313;stroke-linecap:round;stroke-linejoin:round;stroke-miterlimit:4;stroke-opacity:1;stroke-dasharray:none"
       id="path4688"
       sodipodi:sides="6"
       sodipodi:cx="848.1062"
       sodipodi:cy="334.46503"
       sodipodi:r1="305.40097"
       sodipodi:r2="265.69885"
       sodipodi:arg1="1.0453383"
       sodipodi:arg2="1.5689371"
       inkscape:flatsided="false"
       inkscape:rounded="0"
       inkscape:randomized="0"
       d="m 1001.2982,598.66566 -152.698,1.49776 -152.70248,-0.92994 -77.64608,-131.49145 -75.54588,-132.70919 75.05189,-132.9892 77.15659,-131.779246 152.69797,-1.49776 152.70249,0.929943 77.6461,131.491443 75.5458,132.70919 -75.0518,132.9892 z"
       transform="matrix(0.97139787,0,0,0.97139787,-876.12822,-15.835057)" />
  </g>
</svg>
